<svg id="canvas" height="auto" xmlns="http://www.w3.org/2000/svg" version="1.1" xmlns:xlink="http://www.w3.org/1999/xlink" viewBox="0 0 900 512" width="auto" style="width: auto; height: auto;"><defs><linearGradient gradientTransform="matrix(6.123233995736766e-17,1,-1,6.123233995736766e-17,0,0)"><stop stop-color="#03045e" offset="0"/><stop stop-color="#5d035e" offset="1"/></linearGradient><linearGradient gradientTransform="matrix(6.123233995736766e-17,1,-1,6.123233995736766e-17,0,0)"><stop stop-color="#023e8a" offset="0"/><stop stop-color="#4e028a" offset="1"/></linearGradient><linearGradient gradientTransform="matrix(6.123233995736766e-17,1,-1,6.123233995736766e-17,0,0)" id="SvgjsLinearGradient1363"><stop stop-color="#0077b6" offset="0"/><stop stop-color="#3f00b6" offset="1"/></linearGradient><linearGradient gradientTransform="matrix(6.123233995736766e-17,1,-1,6.123233995736766e-17,0,0)"><stop stop-color="#90e0ef" offset="0"/><stop stop-color="#9f90ef" offset="1"/></linearGradient><linearGradient gradientTransform="matrix(6.123233995736766e-17,1,-1,6.123233995736766e-17,0,0)"><stop stop-color="#0096c7" offset="0"/><stop stop-color="#3100c7" offset="1"/></linearGradient><linearGradient gradientTransform="matrix(6.123233995736766e-17,1,-1,6.123233995736766e-17,0,0)" id="SvgjsLinearGradient1362"><stop stop-color="#00b4d8" offset="0"/><stop stop-color="#2400d8" offset="1"/></linearGradient><linearGradient gradientTransform="matrix(6.123233995736766e-17,1,-1,6.123233995736766e-17,0,0)"><stop stop-color="#caf0f8" offset="0"/><stop stop-color="#d2caf8" offset="1"/></linearGradient><linearGradient gradientTransform="matrix(6.123233995736766e-17,1,-1,6.123233995736766e-17,0,0)" id="SvgjsLinearGradient1361"><stop stop-color="#48cae4" offset="0"/><stop stop-color="#6248e4" offset="1"/></linearGradient><linearGradient gradientTransform="matrix(6.123233995736766e-17,1,-1,6.123233995736766e-17,0,0)"><stop stop-color="#ade8f4" offset="0"/><stop stop-color="#b9adf4" offset="1"/></linearGradient></defs><rect width="900" height="512" fill="#188fbfff"/><path d="M830.3753181230994 332.4235966497549C790.4185204695921 355.67104780401917 737.249354253833 362.8959495564104 689.1343633133376 364.2676650460096C641.0193723728424 365.6393805356088 584.1828651009992 372.24931571898446 541.6853724801279 340.6538895873498C499.18787985925655 309.0584634557151 464.94046353048486 220.27703316685177 434.1494075881099 174.69510825620176C403.35835164573496 129.11318334555176 365.67275204383606 104.11610519147473 356.9390368258783 67.16234012344972C348.20532160792055 30.208575055424717 371.197890131499 -5.343113801959362 381.74711628036346 -47.02748215194828C392.29634242922793 -88.71185050193719 394.89702124934433 -148.31706303866767 420.23439371906505 -182.94386997648374C445.5717661887858 -217.5706769142998 494.11844970725963 -234.38524392291538 533.7713510986877 -254.78832377884476C573.4242524901157 -275.19140363477413 616.5896196263213 -304.1898379130686 658.1518020676333 -305.36234911206C699.7139845089453 -306.5348603110514 743.4556935467743 -281.08685765719326 783.1444457465595 -261.8233909727933C822.8331979463447 -242.5599242883933 860.8536974671058 -227.90728208945748 896.2843152663444 -189.7815490056601C931.7149330655828 -151.65581592186274 974.3811437490965 -83.45227516114713 995.7281525419905 -33.06899247000899C1017.0751613348846 17.31429022112917 1035.5085352416436 69.54282204276325 1024.3663680237087 112.51814714116875C1013.2242008057739 155.49347223957426 961.2069908844835 188.1320498689929 928.875149234382 224.78295812042393C896.5433075842805 261.43386637185495 870.3321157766068 309.1761454954907 830.3753181230994 332.4235966497549C790.4185204695921 355.67104780401917 737.249354253833 362.8959495564104 689.1343633133376 364.2676650460096 " fill="none" stroke-width="4" stroke="url(#SvgjsLinearGradient1361)" opacity="0.5"/><path d="M938.0625508124986 820.219385933292C876.3866886682149 843.2518805483576 757.7191759105294 790.6346197805882 685.1686687663889 777.2503519395809C612.6181616222484 763.8660840985737 549.0482342345517 766.0550725870004 502.75950794765527 739.9137788872483C456.4707816607587 713.7724851874963 425.9711340360094 674.638767663272 407.4363110450096 620.4025897410688C388.9014880540098 566.1664118188655 370.1112342037247 473.4860790450783 391.55057000165647 414.496711354029C412.98990579958826 355.5073436629797 479.5332315667098 305.7964842195313 536.0723258326004 266.4663835947729C592.611420098491 227.13628297001443 677.5805601051918 179.95983864424846 730.7851355970001 178.51610760547828C783.9897110888087 177.0723765667081 813.2848518785501 221.91364497142015 855.2997787834511 257.8039973621519C897.3147056883521 293.69434975288357 949.5540198849662 330.3163241353627 982.8746970264062 393.85822194986866C1016.1953741678462 457.4001197643746 1062.6925326677424 567.9951902519504 1055.223841632091 639.0553842491876C1047.7551505964398 710.1155782464248 999.7384129567822 797.1868913182263 938.0625508124986 820.219385933292C876.3866886682149 843.2518805483576 757.7191759105294 790.6346197805882 685.1686687663889 777.2503519395809 " fill="none" stroke-width="4" stroke="url(#SvgjsLinearGradient1362)" opacity="0.5"/><path d="M321.26627665747577 633.4901431789407C281.2234097151827 675.8600590264382 228.08192285816955 719.304827017745 170.18665163498883 727.890156673529C112.29138041180812 736.475486329313 23.17781617486898 726.3921436795964 -26.10535068160854 685.0021211136449C-75.38851753808606 643.6120985476933 -105.10009824932234 544.5039439010691 -125.51234950387624 479.55002127781995C-145.92460075843013 414.5960986545709 -165.48591366701834 349.4209907001318 -148.57885820893188 295.27858537415057C-131.67180275084542 241.13618004816928 -73.99270211376489 190.42911070017638 -24.070016755357557 154.69558932193235C25.85266860304978 118.96206794368831 88.14451876696316 78.61971853066945 150.9572539415122 80.8774571046863C213.76998911606125 83.13519567870316 296.0146486338306 129.5518133434459 352.8063942919367 168.2420207660335C409.5981399500429 206.9322281886211 482.1014847240141 262.11392816979355 491.70772789014916 313.018701640212C501.31397105628423 363.9234751106304 438.8507618275262 420.25875466542266 410.4438532887473 473.67066158854414C382.03694474996837 527.0825685116656 361.30914359976884 591.1202273314432 321.26627665747577 633.4901431789407C281.2234097151827 675.8600590264382 228.08192285816955 719.304827017745 170.18665163498883 727.890156673529 " fill="url(#SvgjsLinearGradient1363)" stroke="none" opacity="0.5"/></svg>