<svg id="canvas" height="auto" xmlns="http://www.w3.org/2000/svg" version="1.1" xmlns:xlink="http://www.w3.org/1999/xlink" viewBox="0 0 900 512" width="auto" style="width: auto; height: auto;"><defs><linearGradient gradientTransform="matrix(6.123233995736766e-17,1,-1,6.123233995736766e-17,0,0)"><stop stop-color="#023e8a" offset="0"/><stop stop-color="#4e028a" offset="1"/></linearGradient><linearGradient gradientTransform="matrix(6.123233995736766e-17,1,-1,6.123233995736766e-17,0,0)" id="SvgjsLinearGradient1365"><stop stop-color="#00b4d8" offset="0"/><stop stop-color="#2400d8" offset="1"/></linearGradient><linearGradient gradientTransform="matrix(6.123233995736766e-17,1,-1,6.123233995736766e-17,0,0)"><stop stop-color="#caf0f8" offset="0"/><stop stop-color="#d2caf8" offset="1"/></linearGradient><linearGradient gradientTransform="matrix(6.123233995736766e-17,1,-1,6.123233995736766e-17,0,0)"><stop stop-color="#03045e" offset="0"/><stop stop-color="#5d035e" offset="1"/></linearGradient><linearGradient gradientTransform="matrix(6.123233995736766e-17,1,-1,6.123233995736766e-17,0,0)" id="SvgjsLinearGradient1364"><stop stop-color="#0077b6" offset="0"/><stop stop-color="#3f00b6" offset="1"/></linearGradient><linearGradient gradientTransform="matrix(6.123233995736766e-17,1,-1,6.123233995736766e-17,0,0)"><stop stop-color="#0096c7" offset="0"/><stop stop-color="#3100c7" offset="1"/></linearGradient><linearGradient gradientTransform="matrix(6.123233995736766e-17,1,-1,6.123233995736766e-17,0,0)"><stop stop-color="#48cae4" offset="0"/><stop stop-color="#6248e4" offset="1"/></linearGradient><linearGradient gradientTransform="matrix(6.123233995736766e-17,1,-1,6.123233995736766e-17,0,0)"><stop stop-color="#ade8f4" offset="0"/><stop stop-color="#b9adf4" offset="1"/></linearGradient><linearGradient gradientTransform="matrix(6.123233995736766e-17,1,-1,6.123233995736766e-17,0,0)"><stop stop-color="#90e0ef" offset="0"/><stop stop-color="#9f90ef" offset="1"/></linearGradient></defs><rect width="900" height="512" fill="#188fbfff"/><path d="M1010.3430779586467 476.0305559653679C961.4209561816967 511.19370237455684 875.8699388582354 515.8768783950893 810.9579051167939 514.1112639851153C746.0458713753525 512.3456495751416 670.2267787270084 502.56476304371 620.8708755099979 465.43686950552484C571.5149722929873 428.3089759673397 534.4559727826431 352.35962319947635 514.8224858147304 291.34390275600407C495.1889988468176 230.3281823125318 481.23922455905983 153.65493718493894 503.06995370252105 99.34254684469107C524.9006828459823 45.0301565044432 589.6106152533903 1.958460546274722 645.8068606754978 -34.530439285483226C702.0031060976054 -71.01933911724117 782.0834842855974 -117.05242162702359 840.2474262351664 -119.59085214585656C898.4113681847355 -122.12928266468953 948.4850062488483 -86.9782232499527 994.7905123729123 -49.76102239848103C1041.0960184969763 -12.543821547009358 1099.7971090786198 44.89678497489635 1118.08046297955 103.71235296297348C1136.3638168804803 162.52792095105065 1122.4468666153114 241.07935169624943 1104.4906357784942 303.13238552998183C1086.534404941677 365.18541936371423 1059.2651997355968 440.867409556179 1010.3430779586467 476.0305559653679C961.4209561816967 511.19370237455684 875.8699388582354 515.8768783950893 810.9579051167939 514.1112639851153 " fill="none" stroke-width="4" stroke="url(#SvgjsLinearGradient1364)" opacity="0.5"/><path d="M410.0057598690632 1003.4166880069738C365.64610965100786 1021.7493030921937 301.7541419083965 1003.7099903225655 249.96028618692208 1001.6489350103114C198.16643046544766 999.5878796980573 142.77513708720832 1018.0473173756371 99.24262554021686 991.0503561334491C55.710113993225406 964.0533948912611 20.19744956195619 884.24070414353 -11.2347830950267 839.6671675571831C-42.66701575200959 795.0936309708361 -78.21440762657596 762.1994939592232 -89.3507704016805 723.6091366153671C-100.48713317678505 685.018779271511 -89.57216438298941 651.410475986547 -78.052959745654 608.1250234940467C-66.53375510831856 564.8395710015466 -50.989748599559164 501.6726542337243 -20.235542577667957 463.8964216603658C10.51866344422325 426.12018908700725 61.64735074200203 403.66484178611216 106.47227638569328 381.4676280538956C151.29720202938452 359.2704143216791 200.87685016886627 329.36804603500354 248.71401128447945 330.7131392670666C296.55117240009264 332.05823249912964 347.10560160439877 367.5462379616684 393.49524307937253 389.53818744627375C439.8848845543463 411.5301369308791 508.1398911339784 430.10093942737853 527.0518601343219 462.6648361746986C545.9638291346655 495.2287329220187 505.95138411489563 541.859165595009 506.96705708143384 584.9215679301944C507.98273004797204 627.9839702653801 531.620709531248 669.917304091012 533.1458979335514 721.0392501858117C534.6710863358547 772.1611962806114 536.6415438393352 844.5903381954652 516.1181874952539 891.6532444989922C495.59483115117257 938.7161508025192 454.36541008711845 985.0840729217539 410.0057598690632 1003.4166880069738C365.64610965100786 1021.7493030921937 301.7541419083965 1003.7099903225655 249.96028618692208 1001.6489350103114 " fill="none" stroke-width="4" stroke="url(#SvgjsLinearGradient1364)" opacity="0.5"/><path d="M989.6834061045342 448.1065921025639C942.8163468040328 487.32788702595815 872.2913603372588 514.1920711481109 809.7820156551575 517.0885014340419C747.2726709730562 519.9849317199728 664.5277107973584 496.8577981345742 614.627338011926 465.4851738181492C564.7269652264937 434.1125495017242 530.2682172177258 387.70487846708386 510.3797789425632 328.8527555354916C490.49134066740055 270.00063260389936 475.5252536264952 177.1192575974912 495.29670836095033 112.37243622859575C515.0681630954055 47.62561485970028 573.1879143898321 -18.376239178587184 629.0085073492938 -59.62817267788111C684.8291003087556 -100.88010617717504 771.6661022582759 -136.3051088485782 830.2202661177206 -135.13916476716784C888.7744299771653 -133.9732206857575 933.1326255781144 -90.15325109894391 980.3334905059617 -52.63250818941907C1027.5343554338087 -15.111765279894229 1094.9836421927703 34.253086009465164 1113.425455684804 89.98529268998115C1131.867269176838 145.7174993704971 1111.6080463882104 222.0738486582463 1090.9843714581655 281.76073189367673C1070.3606965281206 341.44761512910725 1036.5504654050355 408.8852971791697 989.6834061045342 448.1065921025639C942.8163468040328 487.32788702595815 872.2913603372588 514.1920711481109 809.7820156551575 517.0885014340419 " fill="url(#SvgjsLinearGradient1365)" stroke="none" opacity="0.5"/></svg>