<?xml version="1.0" standalone="no"?>
<svg xmlns:xlink="http://www.w3.org/1999/xlink" id="wave" style="transform:rotate(180deg); transition: 0.3s" viewBox="0 0 1440 180" version="1.1" xmlns="http://www.w3.org/2000/svg"><defs><linearGradient id="sw-gradient-0" x1="0" x2="0" y1="1" y2="0"><stop stop-color="#361f16" offset="0%"/><stop stop-color="#9d5306" offset="100%"/></linearGradient></defs><path style="transform:translate(0, 0px); opacity:1" fill="url(#sw-gradient-0)" d="M0,126L48,105C96,84,192,42,288,21C384,0,480,0,576,27C672,54,768,108,864,120C960,132,1056,102,1152,84C1248,66,1344,60,1440,75C1536,90,1632,126,1728,120C1824,114,1920,66,2016,60C2112,54,2208,90,2304,93C2400,96,2496,66,2592,66C2688,66,2784,96,2880,96C2976,96,3072,66,3168,72C3264,78,3360,120,3456,126C3552,132,3648,102,3744,93C3840,84,3936,96,4032,108C4128,120,4224,132,4320,114C4416,96,4512,48,4608,45C4704,42,4800,84,4896,90C4992,96,5088,66,5184,54C5280,42,5376,48,5472,45C5568,42,5664,30,5760,48C5856,66,5952,114,6048,135C6144,156,6240,150,6336,135C6432,120,6528,96,6624,84C6720,72,6816,72,6864,72L6912,72L6912,180L6864,180C6816,180,6720,180,6624,180C6528,180,6432,180,6336,180C6240,180,6144,180,6048,180C5952,180,5856,180,5760,180C5664,180,5568,180,5472,180C5376,180,5280,180,5184,180C5088,180,4992,180,4896,180C4800,180,4704,180,4608,180C4512,180,4416,180,4320,180C4224,180,4128,180,4032,180C3936,180,3840,180,3744,180C3648,180,3552,180,3456,180C3360,180,3264,180,3168,180C3072,180,2976,180,2880,180C2784,180,2688,180,2592,180C2496,180,2400,180,2304,180C2208,180,2112,180,2016,180C1920,180,1824,180,1728,180C1632,180,1536,180,1440,180C1344,180,1248,180,1152,180C1056,180,960,180,864,180C768,180,672,180,576,180C480,180,384,180,288,180C192,180,96,180,48,180L0,180Z"/></svg>