<?xml version="1.0" encoding="utf-8"?>
<!-- Generator: Adobe Illustrator 27.5.0, SVG Export Plug-In . SVG Version: 6.00 Build 0)  -->
<svg version="1.1" id="Layer_1" xmlns="http://www.w3.org/2000/svg" xmlns:xlink="http://www.w3.org/1999/xlink" x="0px" y="0px"
	 viewBox="0 0 502.667 345.333" style="enable-background:new 0 0 502.667 345.333;" xml:space="preserve">
<g>
	<g>
		<path style="fill:#00AFE4;" d="M32.584,289.336c0,0-25.5,4.25-20.75,8s49.5,11,69.25,13s28,4,22.25,6.75s-12.5,6.75,18.75,11.25
			s99.25,8.75,123.75,0.75c0,0,5.5-2,3-5s-18.25-5.25,0.5-7.25s121,0.5,109.5,5.75s-8.75,10,12.25,12.5s59.5,1.5,60.5-4.75
			c0,0,1-3.25-4-4.5s-11.25-4.5,0.5-4.75s50.25,1.25,59.25-8s-44.333-24.25-44.333-24.25L32.584,289.336z"/>
		<g>
			<path style="opacity:0.6;fill:#00AFE4;" d="M428.084,321.086c11.75-0.25,50.25,1.25,59.25-8
				c7.307-7.51-26.467-18.808-39.438-22.795c-1.914,0.185-3.062,0.295-3.062,0.295s44.25,12.5,36.75,20.75
				s-34.219,7.176-55.917,7.833c-11,0.333-11.583,1.333-3.333,7.333s-1.75,7.584-26.75,7.334s-38.5-5.75-30.5-8.75
				s5.25-5-12.75-7.25s-87.75-7.75-103-6.5c-15.25,1.25-22.75,4.5-18.75,7.25s9.5,5.75-6.75,8S150.5,330.919,125,327.169
				s-12.565-6.434-11.333-12c2.417-10.917-87.5-14.916-96-17.666c-5.99-1.938,3.979-5.538,7.929-6.807
				c-7.163,1.556-16.85,4.202-13.763,6.64c4.75,3.75,49.5,11,69.25,13s28,4,22.25,6.75s-12.5,6.75,18.75,11.25
				s99.25,8.75,123.75,0.75c0,0,5.5-2,3-5s-18.25-5.25,0.5-7.25s121,0.5,109.5,5.75s-8.75,10,12.25,12.5s59.5,1.5,60.5-4.75
				c0,0,1-3.25-4-4.5S416.334,321.336,428.084,321.086z"/>
		</g>
	</g>
	<g>
		<path style="fill:#237812;" d="M425.668,241.836c5.666-2,12.334-0.333,12.334-0.333c-7.333-10.333-19.666-9-19.666-9
			c3-7,10.333-10,10.333-10c-14.667-3-22.333,5-22.333,5c0.334-5,6.333-11,6.333-11c-6.333,0.667-12.333,9-12.333,9
			c0.667-6.667-5-9.667-5-9.667c2,5.666-3.002,15.667-3.002,15.667l21.001,15.666c11-2.667,24.333,3,24.333,3
			C433.001,243.835,425.668,241.836,425.668,241.836z"/>
		<path style="fill:#10481B;" d="M396.584,217.961c0,0,3.125,7,1.375,11.875l17.875,15.625c0,0,11.875-0.375,19.625,3.375
			c0,0-7.875-7-18.5-6.625c0,0,9.75-4.375,19.5-1.5c0,0-13-6.25-23.25-2.75c0,0,4.875-12.5,14-15.25c0,0-16,0.5-22.875,9.75
			c0,0,0.75-10.5,6.25-14.625c0,0-10.25,3.875-11.125,11.375C399.459,229.211,401.584,222.586,396.584,217.961z"/>
	</g>
	<g>
		<path style="fill:#BF735B;" d="M53.334,257.836c0,0-10.334-36-11-90l8.667-7.667c0,0-11.334-50.666-13.001-67l10.667-21.667
			l5-1.666c0,0,6.666-46,14.333-60c0,0,0.334-1.667,2.667-1c2.333,0.666,24,8.333,34.667,19.667l10.333,34.333
			c0,0,8.666,3.333,11.333,5.666c2.667,2.334,21.334,34.667,25.667,48.667c0,0,6-8.333,7.333-8.333c1.334,0,11.001,11.333,21.667,36
			c0,0,12,4.001,14.667,5.667c2.666,1.666,34.334,106.667,34.334,106.667L53.334,257.836z"/>
		<g>
			<path style="fill:#DA927E;" d="M94.001,171.17l-10.334-21l-28.666-13l-4,22.999l-8.667,7.667c0.666,54,11,90,11,90l86.394-0.324
				l-37.394-85.342L94.001,171.17z"/>
			<path style="fill:#7A4035;" d="M143.001,145.503l-8.334,4.667l10.193,107.322l85.808-0.322c0,0-31.668-105.001-34.334-106.667
				c-2.667-1.666-14.667-5.667-14.667-5.667c-10.666-24.667-20.333-36-21.667-36c-1.333,0-7.333,8.333-7.333,8.333l-10.333,9.334
				L143.001,145.503z"/>
		</g>
		<g>
			<polygon style="fill:#9A5244;" points="91.001,89.836 77.001,104.169 84.319,151.494 94.001,171.17 102.334,172.17 
				139.728,257.512 144.86,257.492 134.667,150.17 143.001,145.503 142.501,131.261 127.001,105.503 			"/>
			<path style="fill:#B86D58;" d="M152.667,117.169c-4.333-14-23-46.333-25.667-48.667c-2.667-2.333-11.333-5.666-11.333-5.666
				l-10.333-34.333C94.667,17.169,73,9.502,70.667,8.836c-2.333-0.667-2.667,1-2.667,1c-7.667,14-14.333,60-14.333,60l-5,1.666
				L38,93.169c1.667,16.334,13.001,67,13.001,67l4-22.999l28.666,13l0.652,1.324l-7.318-47.325l14-14.333l36,15.667l15.5,25.758
				l-0.167-4.758L152.667,117.169z"/>
		</g>
		<polygon style="fill:#E9967E;" points="88.584,96.336 79.834,105.336 85.334,139.836 102.834,161.836 117.084,190.336 
			106,121.503 		"/>
		<polygon style="fill:#BF735B;" points="125.584,110.086 115.834,135.086 124.834,164.586 		"/>
		<polygon style="fill:#B16B54;" points="158.084,113.586 145.75,127.086 150.834,131.836 		"/>
		<polygon style="fill:#B16B54;" points="164.667,133.169 163.5,146.67 173.334,186.169 177,151.336 		"/>
		<path style="fill:#B16B54;" d="M144.834,133.336c0,0.5,0.75,16.25,0.75,16.25l-8.25,1.75l2.5,36l11.25-34.25L144.834,133.336z"/>
		<polygon style="fill:#E9967E;" points="49.334,72.586 40.084,93.086 50.334,143.586 51.334,90.086 53.084,71.836 		"/>
		<path style="fill:#E9967E;" d="M69.084,12.586c0,0-13,55.5-13.25,75.5l9.5,45.5l6-34.25l12.333-18.833l-4.334-48.333
			L69.084,12.586z"/>
		<path style="fill:#E9967E;" d="M99.584,28.586c0-0.5-15.25,3.583-15.25,3.583l11.5,50L99.584,28.586z"/>
		<g>
			<path style="fill:#64362A;" d="M142.334,126.503l10.333-9.334c-4.333-14-23-46.333-25.667-48.667
				c-2.667-2.333-11.333-5.666-11.333-5.666l12.516,44.631l14.318,23.793L142.334,126.503z"/>
		</g>
		<g>
			<path style="fill:#5D3126;" d="M215.086,206.342c-8.425-27.061-17.387-54.986-18.752-55.839
				c-2.667-1.666-14.667-5.667-14.667-5.667l20.334,57C202.001,201.836,208.586,204.089,215.086,206.342z"/>
		</g>
		<g>
			<path style="fill:#B86D58;" d="M135.165,247.1l-32.831-74.93l-8.333-1l13.333,63.666
				C107.334,234.836,122.403,241.422,135.165,247.1z"/>
		</g>
		<path style="opacity:0.5;fill:#F7BCA4;" d="M49.834,163.836l-6,5c0,0,1.5,43.5,5.5,62.25l7-24.75
			C56.334,206.336,51.834,181.336,49.834,163.836z"/>
		<polygon style="opacity:0.5;fill:#F7BCA4;" points="55.334,141.086 52.834,162.086 60.084,205.086 86,216.17 		"/>
	</g>
	<g>
		<path style="fill:#3D9919;" d="M40.834,270.336c0,0-10,1.25-13.75,10.5c0,0-2.25-13.75,4-17.75c0,0-8-2-13.25,2.75
			c0,0,3.25-11.5,16.25-10.5c0,0-3.25-8-15.75-7.75c0,0,7.5-5,16.75-1.25c0,0-7.5-11.5-3-25c0,0,1.5,13.5,8.5,19.5
			c0,0-3.5-18.25,11-28c0,0-1.5,10.75,1,20.75c0,0,4.75-11.75,18.5-14.25c0,0-3.75,4-5.75,10c0,0,4.25-2.75,10.75-3
			c0,0-7.25,6.5-5.5,19L40.834,270.336z"/>
		<path style="fill:#3D9919;" d="M40.834,270.336c0,0-10,1.25-13.75,10.5c0,0-2.25-13.75,4-17.75c0,0-8-2-13.25,2.75
			c0,0,3.25-11.5,16.25-10.5c0,0-3.25-8-15.75-7.75c0,0,7.5-5,16.75-1.25c0,0-7.5-11.5-3-25c0,0,1.5,13.5,8.5,19.5
			c0,0-3.5-18.25,11-28c0,0-1.5,10.75,1,20.75c0,0,4.75-11.75,18.5-14.25c0,0-3.75,4-5.75,10c0,0,4.25-2.75,10.75-3
			c0,0-7.25,6.5-5.5,19L40.834,270.336z"/>
		<path style="fill:#007634;" d="M46.667,265.837c0,0-12.667-1.334-17.333,7.833c0,0,4.499-13.833,19.166-14.333
			c0,0-12-5.667-22.166-0.667c0,0,8.333-5.833,22.5-3c0,0-10.001-5.999-18.834-8.833c0,0,6.001-0.833,11.167,2
			c0,0-8.667-13.001-8.833-20.834c0,0,3.5,14.833,13,19.833c0,0-8-21,5.167-32.667c0,0-2.334,21.5,4.333,30.834
			c0,0,2.5-20,12.833-24.333c0,0-7,6.501-6.5,15.667c0,0,5.166-7.666,10.833-9c0,0-5,7.166-3.166,14.166L46.667,265.837z"/>
	</g>
	<g>
		<g>
			<path style="fill:#834523;" d="M423.978,168.902c0,0-42.953,6.458-69.088,58.267l9.584,5.2
				C364.475,232.369,385.649,188.784,423.978,168.902z"/>
			<g>
				<path style="fill:#834523;" d="M423.978,168.902c0,0-3.98,0.6-10.247,2.891c0.211,0.027,0.343,0.044,0.343,0.044l-1.129,1.62
					l-1.113-0.231c0,0,0.89,1.102,0.246,1.373c-0.644,0.271-7.152,3.81-7.152,3.81l-1.638-0.642l0.282,1.766
					c-3.235,0.478-13.673,10.566-13.673,10.566l-3.415-1.48l2.871,3.169l-6.59,7.341l-3.96-1.158l2.284,3.102l-3.418,4.472
					c-2.5-1.11-4.597-1.131-4.597-1.131l3.364,2.942c-2.881,3.026-12.246,18.908-12.246,18.908l-6.809-3.808
					c-0.844,1.529-1.676,3.1-2.491,4.714l9.584,5.2C364.475,232.369,385.649,188.784,423.978,168.902z"/>
			</g>
			<path style="fill:#71482D;" d="M409.828,173.792c0,0-31.82,12.005-50.968,47.592l0.521-0.047
				C359.381,221.337,376.982,189.209,409.828,173.792z"/>
			<path style="fill:#237812;" d="M421.807,169.707c-0.458-0.413,11.492-1.371,21.685,6.973l-2.085,2.012l3.436,0.375
				c0,0,2.801,7.64-0.708,17.149l-3.849,0.39l2.419,3.464c0,0-5.48,8.271-11.496,11.126c0,0,0.63-9.084,0.223-10.464l2.722-1.664
				l-3.121-0.04l-1.445-9.22l3.01-2.501l-3.015,0.679C429.581,187.985,430.14,177.207,421.807,169.707z"/>
			<g>
				<path style="fill:#65B204;" d="M422.352,169.524c-0.411,0.051-0.613,0.122-0.545,0.183c8.333,7.5,7.774,18.278,7.774,18.278
					l3.015-0.679l-3.01,2.501l1.445,9.22l3.121,0.04l-2.722,1.664c0.407,1.38-0.223,10.464-0.223,10.464s7.361-13.865,5.038-26.043
					C434.278,174.841,425.114,170.587,422.352,169.524z"/>
			</g>
			<path style="fill:#237812;" d="M422.474,169.16c0,0-2.265-21.201-22.545-28.858l-4.237-0.191l2.872,4.536l4.621,0.399
				c0,0-1.214,1.324-1.658,1.458c-0.443,0.131,1.415,2.876,1.415,2.876l4.857,0.65l-3.349,0.913l2.374,3.396l5.045-0.611
				l-4.155,1.714C407.714,155.442,411.972,165.197,422.474,169.16z"/>
			<path style="fill:#65B204;" d="M420.919,169.969c0,0,0.243-7.309,3.184-12.04l1.933,0.554l-1.491-2.052l5.297-5.188l2.123,0.657
				c0,0-0.436-1.479-0.533-1.53c-0.096-0.052,5.259-2.605,7.017-2.643l1.072,1.451l0.006-1.61c0,0,6.148-1.501,13.227-0.141
				c0,0,3.985,0.427,6.348,2.701l-6.785,0.162l2.649,2.432c0,0-6.826,5.723-7.818,6.176l-1.874-2.258l0.344,2.792l-6.03,3.798
				l-0.85-2.321l-0.733,2.951l-5.458,2.743C432.545,166.604,423.974,170.511,420.919,169.969z"/>
			<g>
				<path style="fill:#237812;" d="M420.919,169.969c3.055,0.542,11.626-3.365,11.626-3.365l5.458-2.743l0.733-2.951l0.85,2.321
					l6.03-3.798l-0.344-2.792l1.874,2.258c0.992-0.453,7.818-6.176,7.818-6.176l-2.649-2.432l6.785-0.162
					C441.382,140.265,420.919,169.969,420.919,169.969z"/>
			</g>
			<path style="fill:#65B204;" d="M418.294,165.815c0,0-20.191-18.566-36.677,3.581l2.795,0.029l3.404-2.619l-1.317,2.429
				l2.218-0.121l2.569-2.905l-0.553,2.843l7.841-1.038l2.246-2.915l-0.424,2.913l8.285,1.188l2.628-2.709l-0.481,2.716l10.982,0.338
				L418.294,165.815z"/>
			<path style="fill:#B5EA00;" d="M421.746,169.51c0,0,8.979,11.489,3.039,27.616l-2.215,0.121l1.36,2.063l-6.152,8.898l-2.113-0.98
				l0.469,1.575c0,0-5.677,4.363-12.568,4.262c0,0,3.259-11.794,3.207-14.136l3.089,1.013l-2.581-2.558l0.448-1.742l5.117,0.628
				l-3.742-2.858l3.193-9.844l5.188,0.499l-4.297-1.835l3.943-1.17l-2.871-1.722l2.472-5.771L421.746,169.51z"/>
			<g>
				<path style="fill:#65B204;" d="M421.746,169.51l-5.015,4.059l-2.472,5.771l2.871,1.722l-3.943,1.17l4.297,1.835l-5.188-0.499
					l-3.193,9.844l3.742,2.858l-5.117-0.628l-0.448,1.742l2.581,2.558l-3.089-1.013c0.052,2.342-3.207,14.136-3.207,14.136
					C430.205,192.626,421.746,169.51,421.746,169.51z"/>
				<path style="fill:#237812;" d="M423.931,199.31l-1.36-2.063l2.215-0.121c5.94-16.127-3.039-27.616-3.039-27.616
					s8.459,23.116-18.181,43.555c6.892,0.102,12.568-4.262,12.568-4.262l-0.469-1.575l2.113,0.98L423.931,199.31z"/>
			</g>
			<path style="fill:#B5EA00;" d="M382.178,169.122c0,0,8.69-10.83,18.392-10.115c9.699,0.717,16.622,6.708,16.622,6.708
				s-7.129-4.695-12.553-4.911l5.968,2.411l-3.209,1.649l-5.946,0.424l1.582-4.114l-3.875,3.46l-6.752,1.449l1.38-3.378
				l-5.349,3.639l1.01-2.539C389.447,163.805,385.102,166.326,382.178,169.122z"/>
			<path style="fill:#65B204;" d="M450.217,147.83c0,0-14.246,0.041-28.64,20.926c0,0,3.53-9.249,12.549-15.353
				C443.144,147.3,450.217,147.83,450.217,147.83z"/>
			<path style="fill:#B5EA00;" d="M424.416,170.379c0,0,15.066,6.068,12.396,23.103c0,0-1.311,9.956-5.403,17.039
				C431.409,210.521,445.715,185.536,424.416,170.379z"/>
		</g>
		<path style="fill:#B5EA00;" d="M421.74,172.183l-4.283,1.546l-1.619,4.979l4.689,3.482l-4.769,0.026l4.166,2.001
			c0,0-1.965,7.564-5.461,12.863l-3.871,0.463l4.279,1.922c0,0-4.049,7.23-10.213,13.561c0,0,11.238-9.282,15.703-21.62
			C424.825,179.067,421.74,172.183,421.74,172.183z"/>
		<path style="fill:#65B204;" d="M401.361,141.841c0,0,15.484,4.969,18.946,23.479l-4.767-3.145l-2.012-3.078l2.497-0.621
			l-2.757-0.064l-2.351-3.538l3.128-1.909l-4.088-1.048l1.72-1.742C411.678,150.175,409.236,146.184,401.361,141.841z"/>
	</g>
	<g>
		<g>
			<path style="fill:#834523;" d="M350.611,128.32c0,0-41.004,20.311-50.533,80.694l11.288,2.129
				C311.366,211.144,318.567,160.606,350.611,128.32z"/>
			<g>
				<path style="fill:#834523;" d="M350.611,128.32c0,0-3.801,1.884-9.348,6.2c0.22-0.041,0.357-0.066,0.357-0.066l-0.609,1.989
					l-1.191,0.125c0,0,1.246,0.82,0.689,1.299c-0.559,0.479-5.947,6.125-5.947,6.125l-1.85-0.117l0.853,1.68
					c-3.092,1.521-10.312,15.003-10.312,15.003l-3.903-0.386l3.901,2.254l-4.247,9.485l-4.344,0.114l3.291,2.375l-1.988,5.587
					c-2.866-0.311-4.976,0.346-4.976,0.346l4.322,1.867c-1.914,3.963-6.194,22.909-6.194,22.909l-8.056-1.626
					c-0.355,1.806-0.683,3.648-0.982,5.531l11.288,2.129C311.366,211.144,318.567,160.606,350.611,128.32z"/>
			</g>
			<path style="fill:#71482D;" d="M337.992,137.783c0,0-28.051,22.289-35.796,64.149l0.508-0.215
				C302.704,201.718,310.012,163.824,337.992,137.783z"/>
			<path style="fill:#237812;" d="M348.691,129.827c-0.592-0.266,11.086-5.076,23.997,0.011l-1.443,2.689l3.565-0.731
				c0,0,5.27,6.762,4.813,17.431l-3.735,1.63l3.542,2.695c0,0-2.832,10.061-7.947,14.862c0,0-2.294-9.314-3.147-10.567l2.194-2.546
				l-3.143,0.965l-4.42-8.782l2.213-3.478l-2.805,1.65C362.377,145.656,359.466,134.666,348.691,129.827z"/>
			<g>
				<path style="fill:#65B204;" d="M349.18,129.469c-0.396,0.184-0.576,0.32-0.488,0.358c10.774,4.839,13.686,15.829,13.686,15.829
					l2.805-1.65l-2.213,3.478l4.42,8.782l3.143-0.965l-2.194,2.546c0.853,1.253,3.147,10.567,3.147,10.567
					s2.919-16.279-3.335-27.745C362.854,130.96,352.292,129.645,349.18,129.469z"/>
			</g>
			<path style="fill:#237812;" d="M349.184,129.064c0,0-9.098-20.537-31.907-21.685l-4.311,1.173l4.34,3.624l4.766-1.087
				c0,0-0.792,1.719-1.194,1.996c-0.402,0.274,2.346,2.43,2.346,2.43l5.082-0.913l-3.066,1.995l3.477,2.642l4.863-2.238
				l-3.616,3.057C329.962,120.058,337.375,128.471,349.184,129.064z"/>
			<path style="fill:#65B204;" d="M347.887,130.376c0,0-2.111-7.409-0.686-13.102l2.117-0.067l-2.157-1.579l3.642-6.909l2.342-0.024
				c0,0-0.912-1.343-1.027-1.363c-0.112-0.022,4.436-4.307,6.186-4.911l1.542,1.11l-0.512-1.617c0,0,5.684-3.486,13.223-4.401
				c0,0,4.135-0.855,7.236,0.665l-6.754,2.348l3.44,1.586c0,0-5.003,7.938-5.853,8.712l-2.607-1.661l1.242,2.69l-4.823,5.752
				l-1.601-2.055l0.217,3.195l-4.592,4.51C358.463,123.256,351.125,129.936,347.887,130.376z"/>
			<g>
				<path style="fill:#237812;" d="M347.887,130.376c3.238-0.44,10.576-7.12,10.576-7.12l4.592-4.51l-0.217-3.195l1.601,2.055
					l4.823-5.752l-1.242-2.69l2.607,1.661c0.851-0.774,5.853-8.712,5.853-8.712l-3.44-1.586l6.754-2.348
					C358.845,93.991,347.887,130.376,347.887,130.376z"/>
			</g>
			<path style="fill:#65B204;" d="M343.915,127.055c0,0-26.233-12.12-35.635,15.404l2.814-0.871l2.571-3.723l-0.54,2.859
				l2.186-0.835l1.642-3.742l0.36,3.029l7.531-3.565l1.313-3.647l0.513,3.058l8.694-1.476l1.764-3.564l0.391,2.879l11.124-3.198
				L343.915,127.055z"/>
			<path style="fill:#B5EA00;" d="M348.566,129.649c0,0,12.708,8.632,11.942,26.721l-2.181,0.835l2.028,1.631l-3.307,10.906
				l-2.434-0.303l0.977,1.43c0,0-4.288,6.203-11.233,8.321c0,0-0.53-12.88-1.337-15.211l3.424,0.02l-3.412-1.733l-0.111-1.893
				l5.336-1.018l-4.675-1.662l0.033-10.902l5.363-1.17l-4.9-0.456l3.578-2.444l-3.435-0.802l0.621-6.585L348.566,129.649z"/>
			<g>
				<path style="fill:#65B204;" d="M348.566,129.649l-3.722,5.686l-0.621,6.585l3.435,0.802l-3.578,2.444l4.9,0.456l-5.363,1.17
					l-0.033,10.902l4.675,1.662l-5.336,1.018l0.111,1.893l3.412,1.733l-3.424-0.02c0.807,2.331,1.337,15.211,1.337,15.211
					C364.497,150.11,348.566,129.649,348.566,129.649z"/>
				<path style="fill:#237812;" d="M360.356,158.836l-2.028-1.631l2.181-0.835c0.766-18.089-11.942-26.721-11.942-26.721
					s15.931,20.461-4.207,49.542c6.945-2.118,11.233-8.321,11.233-8.321l-0.977-1.43l2.434,0.303L360.356,158.836z"/>
			</g>
			<path style="fill:#B5EA00;" d="M308.754,142.003c0,0,5.23-13.661,15.19-16.069c9.959-2.405,18.833,1.375,18.833,1.375
				s-8.663-2.413-14.173-0.883l6.764,0.496l-2.689,2.688l-5.828,2.341l0.262-4.637l-2.771,4.719l-6.306,3.628l0.295-3.834
				l-4.191,5.374l0.194-2.873C314.333,134.328,310.786,138.258,308.754,142.003z"/>
			<path style="fill:#65B204;" d="M370.143,98.734c0,0-14.276,4.629-21.987,30.213c0,0,0.563-10.415,7.643-19.441
				C362.878,100.48,370.143,98.734,370.143,98.734z"/>
			<path style="fill:#B5EA00;" d="M351.524,129.661c0,0,17.067,1.235,19.876,19.181c0,0,1.89,10.407,0.068,18.83
				C371.469,167.672,377.769,138.005,351.524,129.661z"/>
		</g>
		<path style="fill:#B5EA00;" d="M349.423,132.332l-3.799,2.93l-0.021,5.516l5.823,1.983l-4.773,1.563l4.822,0.665
			c0,0,0.465,8.221-1.335,14.66l-3.733,1.712l4.912,0.549c0,0-1.733,8.557-5.876,16.892c0,0,8.281-12.93,8.787-26.742
			C354.733,138.243,349.423,132.332,349.423,132.332z"/>
		<path style="fill:#65B204;" d="M319.21,108.461c0,0,17.132-0.003,26.565,17.448l-5.795-1.619l-3.009-2.439l2.304-1.427
			l-2.785,0.824l-3.498-2.793l2.523-2.921l-4.438,0.265l1.164-2.301C332.242,113.498,328.508,110.281,319.21,108.461z"/>
	</g>
	<g>
		<g>
			<path style="fill:#865537;" d="M260.125,104.214c0,0-37.111,27.849-35.42,89.809l11.646,0.032
				C236.352,194.055,234.166,142.341,260.125,104.214z"/>
			<g>
				<path style="fill:#865537;" d="M260.125,104.214c0,0-3.438,2.583-8.17,7.913c0.213-0.081,0.345-0.131,0.345-0.131l-0.239,2.096
					l-1.164,0.346c0,0,1.396,0.586,0.927,1.167c-0.467,0.582-4.794,7.209-4.794,7.209l-1.863,0.226l1.16,1.517
					c-2.801,2.09-7.5,16.867-7.5,16.867l-3.961,0.339l4.306,1.524l-2.476,10.243l-4.31,0.919l3.721,1.759l-0.947,5.937
					c-2.912,0.224-4.895,1.266-4.895,1.266l4.655,1.063c-1.176,4.305-1.929,23.984-1.929,23.984l-8.332-0.127
					c-0.02,1.865-0.006,3.763,0.047,5.693l11.646,0.032C236.352,194.055,234.166,142.341,260.125,104.214z"/>
			</g>
			<path style="fill:#71482D;" d="M249.299,115.986c0,0-23.832,27.418-23.795,70.586l0.466-0.308
				C225.97,186.265,226.231,147.133,249.299,115.986z"/>
			<path style="fill:#237812;" d="M258.491,106.073c-0.641-0.156,10.11-7.116,23.923-4.438l-0.94,2.948l3.42-1.388
				c0,0,6.506,5.764,8.028,16.482l-3.422,2.319l4.032,2.03c0,0-0.962,10.556-5.171,16.29c0,0-4.013-8.861-5.095-9.952l1.716-2.945
				l-2.955,1.544l-6.034-7.936l1.563-3.877l-2.49,2.167C275.067,119.317,270.128,108.9,258.491,106.073z"/>
			<g>
				<path style="fill:#65B204;" d="M258.911,105.624c-0.361,0.257-0.515,0.426-0.42,0.449c11.637,2.827,16.576,13.244,16.576,13.244
					l2.49-2.167l-1.563,3.877l6.034,7.936l2.955-1.544l-1.716,2.945c1.082,1.091,5.095,9.952,5.095,9.952s-0.107-16.77-8.465-27.041
					C272.82,104.577,262.047,105.223,258.911,105.624z"/>
			</g>
			<path style="fill:#237812;" d="M258.841,105.221c0,0-12.876-18.786-35.827-15.705l-4.081,1.968l5,2.809l4.548-1.967
				c0,0-0.471,1.862-0.82,2.211c-0.352,0.349,2.789,1.987,2.789,1.987l4.896-1.85l-2.685,2.554l3.953,1.991l4.434-3.132
				l-3.037,3.719C238.01,99.806,246.957,106.818,258.841,105.221z"/>
			<path style="fill:#65B204;" d="M257.789,106.77c0,0-3.477-6.997-3.109-12.935l2.097-0.46l-2.442-1.172l2.351-7.562l2.33-0.46
				c0,0-1.159-1.169-1.277-1.168c-0.116-0.001,3.624-5.115,5.257-6.042l1.745,0.82l-0.811-1.516c0,0,5.02-4.528,12.363-6.837
				c0,0,3.963-1.619,7.339-0.679l-6.299,3.593l3.724,0.942c0,0-3.517,8.841-4.221,9.771l-2.906-1.172l1.739,2.451l-3.745,6.627
				l-1.974-1.752l0.806,3.146l-3.741,5.347C267.014,97.711,260.936,105.73,257.789,106.77z"/>
			<g>
				<path style="fill:#237812;" d="M257.789,106.77c3.146-1.04,9.225-9.058,9.225-9.058l3.741-5.347l-0.806-3.146l1.974,1.752
					l3.745-6.627l-1.739-2.451l2.906,1.172c0.704-0.929,4.221-9.771,4.221-9.771l-3.724-0.942l6.299-3.593
					C261.971,68.466,257.789,106.77,257.789,106.77z"/>
			</g>
			<path style="fill:#B5EA00;" d="M253.215,104.194c0,0-28.396-7.22-32.669,21.961l2.643-1.39l1.874-4.188l-0.008,2.951l2.023-1.239
				l0.943-4.034l0.922,2.953l6.846-4.95l0.634-3.88l1.078,2.954l8.393-3.083l1.098-3.878l0.924,2.797l10.497-5.25L253.215,104.194z"
				/>
			<path style="fill:#B5EA00;" d="M258.335,105.918c0,0,14.266,6.25,16.857,24.425l-2.022,1.237l2.325,1.25l-1.273,11.486
				l-2.484,0.148l1.239,1.245c0,0-3.126,6.979-9.657,10.378c0,0-2.914-12.741-4.151-14.918l3.418-0.612l-3.723-1.097l-0.461-1.865
				l5.129-2.004l-4.967-0.79l-1.988-10.875l5.131-2.161l-4.971,0.453l3.114-3.099l-3.572-0.163l-0.603-6.681L258.335,105.918z"/>
			<g>
				<path style="fill:#B5EA00;" d="M258.335,105.918l-2.659,6.358l0.603,6.681l3.572,0.163l-3.114,3.099l4.971-0.453l-5.131,2.161
					l1.988,10.875l4.967,0.79l-5.129,2.004l0.461,1.865l3.723,1.097l-3.418,0.612c1.237,2.177,4.151,14.918,4.151,14.918
					C278.007,123.364,258.335,105.918,258.335,105.918z"/>
				<path style="fill:#65B204;" d="M275.495,132.83l-2.325-1.25l2.022-1.237c-2.592-18.174-16.857-24.425-16.857-24.425
					s19.672,17.446,4.984,50.169c6.531-3.399,9.657-10.378,9.657-10.378l-1.239-1.245l2.484-0.148L275.495,132.83z"/>
			</g>
			<path style="fill:#B5EA00;" d="M220.934,125.613c0,0,2.682-14.589,12.165-18.833c9.482-4.244,19.028-2.121,19.028-2.121
				s-9.082-0.801-14.292,1.746l6.833-0.757l-2.18,3.177l-5.377,3.413l-0.599-4.672l-1.888,5.218l-5.615,4.788l-0.414-3.878
				l-3.186,6.133l-0.337-2.899C225.073,116.928,222.266,121.502,220.934,125.613z"/>
			<path style="fill:#65B204;" d="M274.112,71.101c0,0-13.373,7.261-16.318,34.194c0,0-1.371-10.485,4.015-20.796
				C267.194,74.188,274.112,71.101,274.112,71.101z"/>
			<path style="fill:#B5EA00;" d="M261.285,105.382c0,0,17.243-1.932,23.368,15.438c0,0,3.814,10.026,3.558,18.76
				C288.211,139.579,288.994,108.836,261.285,105.382z"/>
		</g>
		<path style="fill:#B5EA00;" d="M259.684,108.435l-3.244,3.625l1.002,5.502l6.174,0.898l-4.471,2.441l4.932-0.231
			c0,0,1.988,8.109,1.388,14.862l-3.406,2.4l4.999-0.363c0,0-0.143,8.851-2.73,17.928c0,0,5.863-14.425,3.805-28.289
			C266.075,113.344,259.684,108.435,259.684,108.435z"/>
		<path style="fill:#65B204;" d="M225.141,90.236c0,0,17.077-3.177,29.717,12.472l-6.075-0.54l-3.454-1.876l2.034-1.848
			l-2.624,1.338l-4.005-2.136l1.974-3.381l-4.375,1.089l0.734-2.509C239.066,92.844,234.746,90.328,225.141,90.236z"/>
	</g>
	<g>
		<path style="fill:#F9CA67;" d="M444.038,279.48c-28.887-56.183-109.956-96.644-205.454-96.644
			c-95.497,0-176.567,40.461-205.454,96.644c-2.066,4.018-3.855,8.118-5.373,12.288c22.748,9.789,108.5,17.068,210.827,17.068
			c102.327,0,188.079-7.279,210.827-17.068C447.894,287.598,446.103,283.497,444.038,279.48z"/>
		<g>
			<path style="fill:#E7A068;" d="M446.629,284.906c0.339,0.765,0.668,1.532,0.988,2.302
				C447.296,286.439,446.97,285.67,446.629,284.906z"/>
			<path style="fill:#E7A068;" d="M29.808,286.594c0.486-1.146,0.994-2.285,1.52-3.419
				C30.799,284.309,30.294,285.448,29.808,286.594z"/>
			<path style="fill:#E7A068;" d="M31.424,282.964c0.545-1.168,1.112-2.33,1.706-3.484
				C32.537,280.634,31.972,281.797,31.424,282.964z"/>
			<path style="fill:#00AFE4;" d="M447.736,287.494c0.354,0.857,0.697,1.718,1.028,2.581c-3.426,1-7.318,0.62-10.708-0.139
				c-5.15-1.151-9.527-4.413-14.707-5.566c-3.635-0.81-7.364-0.404-9.65,2.72c-1.217,1.662-1.887,3.626-3.218,5.227
				c-1.747,2.1-4.922,2.663-7.542,1.977c-1.734-0.656-3.399-1.574-4.659-2.232c-3.096-1.615-6.518-4.146-10.112-4.392
				c-4.41-0.302-4.961,2.931-6.091,6.283c-2.36,7.001-11.968,3.177-16.429,1.065c-4.467-2.114-9.608-6.435-14.795-4.587
				c-2.57,0.915-4.442,3.36-6.905,4.557c-3.374,1.639-7.191,1.956-10.873,1.594c-6.891-0.68-13.341-4.171-19.458-7.157
				c-5.833-2.849-11.657-5.383-18.176-6.122c-13.096-1.485-23.468,6.285-35.122,10.656c-5.046,1.893-10.21,2.985-15.603,2.755
				c-0.821-0.035-1.672-0.102-2.53-0.187c-4.987-1.169-9.815-3.248-14.042-5.981c-10.053-6.501-18.254-18.716-31.103-19.916
				c-6.365-0.595-13.257,1.952-19.198,3.977c-6.719,2.289-13.058,5.468-19.689,7.96c-3.103,1.167-7.503,2.586-10.292,0.12
				c-1.387-1.228-2.318-3.265-4.162-3.866c-1.591-0.518-4.384,1.499-5.668,2.027c-2.523,1.04-4.775,0.237-6.833-1.074
				c-1.192-1.097-2.469-2.111-3.886-2.986c-8.019-4.951-17.708-3.124-26.05-0.108c-9.905,3.582-19.013,9.061-28.997,12.449
				c-4.483,1.521-10.33,3.221-15.008,1.748c-3.835-1.207-4.187-6.916-6.574-9.677c-3.793-4.389-9.941-2.099-14.093,0.363
				c-2.431,1.441-4.655,3.177-6.783,5.033c-0.727,1.713-1.418,3.436-2.051,5.173c22.748,9.789,108.5,17.068,210.827,17.068
				c102.327,0,188.079-7.279,210.827-17.068C448.89,290.334,448.323,288.911,447.736,287.494z"/>
			<path style="fill:#E7A068;" d="M445.405,282.244c0.272,0.569,0.531,1.143,0.792,1.715
				C445.936,283.387,445.678,282.814,445.405,282.244z"/>
			<path style="fill:#E7A068;" d="M31.328,283.175c0.033-0.07,0.063-0.141,0.096-0.211
				C31.392,283.034,31.361,283.105,31.328,283.175z"/>
			<path style="fill:#E7A068;" d="M446.197,283.959c0.143,0.315,0.291,0.631,0.432,0.947
				C446.488,284.589,446.341,284.274,446.197,283.959z"/>
			<path style="fill:#E7A068;" d="M444.038,279.48c0.472,0.917,0.925,1.84,1.367,2.765
				C444.964,281.318,444.51,280.397,444.038,279.48z"/>
			<path style="fill:#E7A068;" d="M447.617,287.208c0.039,0.096,0.08,0.19,0.119,0.286
				C447.697,287.398,447.656,287.304,447.617,287.208z"/>
			<polygon style="fill:#E7A068;" points="29.808,286.595 29.808,286.595 29.808,286.594 			"/>
		</g>
		<g>
			<path style="fill:#ACEBFF;" d="M448.765,290.075c-3.426,1-7.318,0.62-10.708-0.139c-5.15-1.151-9.527-4.413-14.707-5.566
				c-3.635-0.81-7.364-0.404-9.65,2.72c-1.217,1.662-1.887,3.626-3.218,5.227c-1.747,2.1-4.922,2.663-7.542,1.977
				c-1.734-0.656-3.399-1.574-4.659-2.232c-3.096-1.615-6.518-4.146-10.112-4.392c-4.41-0.302-4.961,2.931-6.091,6.283
				c-2.36,7.001-11.968,3.177-16.429,1.065c-4.467-2.114-9.608-6.435-14.795-4.587c-2.57,0.915-4.442,3.36-6.905,4.557
				c-3.374,1.639-7.191,1.956-10.873,1.594c-6.891-0.68-13.341-4.171-19.458-7.157c-5.833-2.849-11.657-5.383-18.176-6.122
				c-13.096-1.485-23.468,6.285-35.122,10.656c-5.046,1.893-10.21,2.985-15.603,2.755c-0.821-0.035-1.672-0.102-2.53-0.187
				c-4.987-1.169-9.815-3.248-14.042-5.981c-10.053-6.501-18.254-18.716-31.103-19.916c-6.365-0.595-13.257,1.952-19.198,3.977
				c-6.719,2.289-13.058,5.468-19.689,7.96c-3.103,1.167-7.503,2.586-10.292,0.12c-1.387-1.228-2.318-3.265-4.162-3.866
				c-1.591-0.518-4.384,1.499-5.668,2.027c-2.523,1.04-4.775,0.237-6.833-1.074c-1.192-1.097-2.469-2.111-3.886-2.986
				c-8.019-4.951-17.708-3.124-26.05-0.108c-9.905,3.582-19.013,9.061-28.997,12.449c-4.483,1.521-10.33,3.221-15.008,1.748
				c-3.835-1.207-4.187-6.916-6.574-9.677c-3.542-4.099-9.137-2.372-13.243-0.121c4.056-1.127,8.342-1.18,9.893,2.759
				c3.25,8.25,2.25,15.75,17.25,13s50-24.75,57.25-20s6.75,13.75,14,11.75s6.5-7,11.75-3.25s0,20.5,26.75,11.75s32-21.75,42-13.5
				s12,24.25,41.75,15.5s35.75-13.25,46.25-4.75s24.5,11.5,37.75,4s14.25-7,22-2.5s22.5,6.25,26,0.75s11.75,4.5,17.25-0.25
				s10-3.5,18.25-3c5.352,0.324,15.646,1.065,23.585-2.206c-0.454-1.218-0.933-2.43-1.433-3.636
				C448.09,288.352,448.434,289.212,448.765,290.075z"/>
		</g>
		<path style="fill:#FFE38B;" d="M42.834,269.336c0,0,58-90.5,211.5-85c0,0,53,3,94,22.5c0,0,20,8.5-14,4s-97-11.5-68,2.5
			s56.06,39.712,7.5,32.5c-101-15-127.646-3.963-114,9c10,9.5-11.34,23.915-25,20.5c-10-2.5-8.667-19.5-37.167-7.5
			c-20.407,8.592-34.833,24.5-40.833,13.5S54.834,264.336,42.834,269.336z"/>
		<path style="opacity:0.7;fill:#F9CA67;" d="M382.334,229.336c-18-8.666-63-11.833-38.333,8.167s5.333,33.667-21,27
			c-26.333-6.667-96.667-16.333-77.333-3c19.333,13.333,23.666,19.667,6.666,20.667s-2,10,9,5.333c11-4.667,16.668-16,40.334-8
			c23.666,8,24.999,17.999,36.999,12.333c12-5.666,14-10,24.667-4.333c10.667,5.667,6.333-11.999,22.333-7.333
			c16,4.666,22.667,10.999,26.667-0.334s23.667,10.666,26,4C440.667,277.17,419.693,247.322,382.334,229.336z"/>
		<g style="opacity:0.7;">
			<path style="fill:#DC9C57;" d="M77.06,262.166c-1.601,2.349-4.031,3.482-5.429,2.529c-1.397-0.952-1.232-3.63,0.369-5.979
				c1.602-2.35,4.033-3.482,5.43-2.529C78.828,257.139,78.662,259.815,77.06,262.166z"/>
			<path style="fill:#DC9C57;" d="M87.546,261.228c-1.146,1.681-2.885,2.491-3.885,1.811c-1-0.682-0.881-2.598,0.264-4.278
				c1.146-1.681,2.885-2.491,3.885-1.81C88.811,257.631,88.692,259.546,87.546,261.228z"/>
		</g>
		<g style="opacity:0.7;">
			<path style="fill:#DC9C57;" d="M188.729,204.304c-1.011,1.484-2.548,2.2-3.431,1.599c-0.883-0.602-0.779-2.294,0.233-3.778
				c1.012-1.485,2.549-2.201,3.432-1.599C189.846,201.126,189.742,202.818,188.729,204.304z"/>
			<path style="fill:#DC9C57;" d="M195.356,203.711c-0.724,1.062-1.823,1.574-2.455,1.144c-0.632-0.431-0.557-1.642,0.167-2.703
				c0.724-1.063,1.823-1.575,2.456-1.145C196.156,201.438,196.081,202.648,195.356,203.711z"/>
		</g>
		<g style="opacity:0.7;">
			<path style="fill:#DC9C57;" d="M320.031,227.516c-1.011,1.484-2.547,2.2-3.43,1.599c-0.884-0.602-0.779-2.294,0.232-3.778
				c1.012-1.485,2.549-2.201,3.432-1.599C321.148,224.338,321.045,226.03,320.031,227.516z"/>
			<path style="fill:#DC9C57;" d="M326.659,226.923c-0.724,1.062-1.823,1.574-2.455,1.144c-0.632-0.431-0.558-1.642,0.167-2.703
				c0.725-1.063,1.823-1.575,2.455-1.145C327.459,224.649,327.384,225.859,326.659,226.923z"/>
		</g>
		<g style="opacity:0.7;">
			<path style="fill:#DC9C57;" d="M340.932,280.926c-1.011,1.484-2.547,2.2-3.43,1.599c-0.884-0.602-0.779-2.294,0.232-3.778
				c1.012-1.485,2.549-2.201,3.432-1.599C342.049,277.748,341.945,279.44,340.932,280.926z"/>
			<path style="fill:#DC9C57;" d="M347.56,280.333c-0.724,1.061-1.823,1.574-2.455,1.144c-0.632-0.431-0.558-1.642,0.167-2.703
				c0.725-1.063,1.823-1.575,2.455-1.145C348.359,278.06,348.284,279.27,347.56,280.333z"/>
		</g>
		<g>
			<path style="opacity:0.7;fill:#F9CA67;" d="M196.334,255.503c0,0-0.167-3.833-3.5-2.333c-3.334,1.5-3,12,4,12.833
				c7,0.833,12.833-11.167,4.833-9.167C201.667,256.836,201.667,252.17,196.334,255.503z"/>
			<path style="fill:#B588A5;" d="M195.167,254.336c0,0-0.166-3.833-3.5-2.333c-3.333,1.5-3,12,4,12.833s12.833-11.167,4.833-9.167
				C200.5,255.669,200.501,251.003,195.167,254.336z"/>
			<path style="fill:#B588A5;" d="M200.5,255.669c0,0,0.001-4.666-5.333-1.333c0,0-0.125-2.692-2.137-2.67
				c0.755,0.487,1.277,1.417,1.453,2.704c0.428,3.145-0.425,6.465-1.28,9.638c0.708,0.418,1.521,0.716,2.464,0.828
				C202.667,265.669,208.5,253.669,200.5,255.669z M198.67,258.299c-0.487,2.098-1.757,4.644-3.569,3.64
				c-0.964-0.534-0.834-2.46-0.684-3.329c0.217-1.258,1.152-3.368,2.221-4.083c1.337-0.895,2.06,0.639,2.228,1.743
				C198.933,256.711,198.863,257.47,198.67,258.299z M200.584,259.003c-0.29-0.02-0.476-0.214-0.5-0.5
				c-0.065-0.77,0.332-1.469,0.998-1.849c0.39-0.223,0.744,0.127,0.74,0.469c0.105,0.096,0.168,0.239,0.179,0.38
				C202.067,258.345,201.449,259.063,200.584,259.003z"/>
		</g>
		<g>
			<path style="opacity:0.7;fill:#F9CA67;" d="M249,279.336c0,0,0-1.5-2.332-0.833c-2.334,0.667-1,9.667,4.5,9.5
				c5.5-0.167,5.832-7.5,4.332-8s-2.5,0.5-2.5,0.5S252.834,275.336,249,279.336z"/>
			<path style="fill:#B588A5;" d="M247.834,278.169c0,0,0-1.5-2.333-0.833c-2.333,0.667-1,9.667,4.5,9.5s5.833-7.5,4.333-8
				s-2.5,0.5-2.5,0.5S251.667,274.169,247.834,278.169z"/>
			<path style="fill:#B588A5;" d="M254.334,278.836c-1.5-0.5-2.5,0.5-2.5,0.5s-0.167-5.167-4-1.167c0,0,0-1.5-2.333-0.833
				c-0.438,0.125-0.746,0.543-0.923,1.139c0.773-0.525,2.011-0.456,2.799,0.443c0.236,0.27,0.434,0.563,0.611,0.869
				c0.153-0.722,0.519-1.332,1.215-1.557c1.638-0.529,1.832,2.411,1.816,3.349c-0.017,0.94-0.111,4.495-1.935,3.634
				c-0.238-0.112-0.425-0.328-0.582-0.592c-0.131,0.379-0.321,0.726-0.607,0.994c-0.224,0.211-0.486,0.292-0.757,0.297
				c0.783,0.591,1.73,0.958,2.862,0.924C255.501,286.669,255.834,279.336,254.334,278.836z M253.141,283.4
				c-0.241,0.387-0.812,0.891-1.295,0.613c-0.374-0.215-0.417-0.692-0.376-1.08c0.111-1.051,0.429-2.321,1.136-3.139
				c0.267-0.308,0.643-0.14,0.781,0.147c0.023,0.014,0.047,0.018,0.07,0.035C254.48,280.706,253.662,282.566,253.141,283.4z"/>
		</g>
	</g>
	<g>
		<path style="fill:#80ABC8;" d="M279.417,251.836l-2.083,3l26.75,53.667c0,0,3,4.666,11.75,4.333
			c11.663-0.444,74.319,6.584,68,11.249c-5.673,4.188,1.985,6.177,5.396,6.893c5.098,1.07,8.652,1.267,13.854,1.526
			c3.218,0.16,14.5-0.667,14.166-5.167c-0.128-1.725-7.034-3.724-7.5-5.167c-1.672-5.196,8.543-5.156,11.944-5.178
			c7.309-0.044,14.612,0.076,21.922-0.082c4.989-0.108,9.978-0.223,14.967-0.324c3.268-0.066,6.667-0.5,8-1.25
			c9.709-5.463-20.167-6.499-27.167-6.833c-7-0.334,14-5-3.666-9.667c-18.717-4.944-52.333-8-52.333-8l-1-29L279.417,251.836z"/>
		<g>
			<path style="fill:#593821;" d="M369.668,254.753l0.079,0.487l8.421,51.388c0,0,0.5,2.25,5.125,2.25s5-3,5.125-3.375
				l-2.875-46.875L369.668,254.753z"/>
			<polygon style="fill:#955E3D;" points="375.834,282.586 379.334,306.586 383.084,307.336 381.584,289.586 			"/>
			<polygon style="fill:#A06542;" points="277.834,249.336 393.418,245.503 473.584,263.086 473.084,268.586 401.834,282.836 
				277.334,254.836 			"/>
			<path style="fill:#7A4E31;" d="M299.084,257.961l0.079,0.487l8.421,51.388c0,0,0.5,2.25,5.125,2.25s5-3,5.125-3.375
				l-2.875-46.875L299.084,257.961z"/>
			<path style="fill:#955E3D;" d="M389.334,277.086l6.75,45.875c0,0,0.25,3.875,3.75,4.5s6.75-0.5,6.625-6.625l1.75-41.375
				L389.334,277.086z"/>
			<path style="fill:#7A4E31;" d="M389.334,277.086l6.75,45.875c0,0,0.25,3.875,3.75,4.5s6.75-0.5,6.625-6.625l1.75-41.375
				L389.334,277.086z"/>
			<path style="fill:#5B3922;" d="M455.209,265.211l0.625,45.25c0,0,0.25,3.875,3.75,4.5s6.75-0.5,6.625-6.625l4.375-42
				L455.209,265.211z"/>
			<path style="opacity:0.5;fill:#D28A52;" d="M391.584,284.336l5.5,39.5c0,0,0.666,2.167,2.666,2.667l0.5-24l-3-3.001l2.334-1
				c0,0,0.166-8.833,0-9.5C399.418,288.335,391.584,284.336,391.584,284.336z"/>
			<path style="opacity:0.5;fill:#D28A52;" d="M302.334,264.586l6.75,44.5c0,0,1.667,2.417,4.667,1.75l-4.333-29.333
				c0,0-1.459-14.381-2.084-14.667C305.334,265.92,302.334,264.586,302.334,264.586z"/>
			<path style="fill:#955E3D;" d="M457.001,282.366L457,310.041c0,0,0.659,2.24,1.45,2.636l1.186,0.659l1.712-17.923l-2.24-2.109
				l3.031-0.395l0.527-5.403L457.001,282.366z"/>
			<g style="opacity:0.4;">
				<polygon style="fill:#955E3D;" points="473.584,263.086 393.418,245.503 301.961,248.536 301.917,248.669 338.25,248.669 
					348.584,250.669 309.917,254.003 353.75,252.503 374.25,256.336 347.917,260.336 376.917,257.336 412.084,263.669 
					381.084,267.502 415.751,265.669 431.584,268.502 401.584,273.669 407.131,281.776 473.084,268.586 				"/>
			</g>
			<polygon style="fill:#492D18;" points="378.417,268.836 456.417,260.003 372.251,267.836 			"/>
			<polygon style="fill:#492D18;" points="338.751,261.169 423.251,252.502 343.084,261.502 			"/>
			<polygon style="fill:#492D18;" points="302.584,253.669 406.251,248.836 307.917,254.336 			"/>
			<g>
				<g>
					<polygon style="fill:#6E452B;" points="473.084,268.586 473.584,263.086 400.834,273.586 401.694,282.805 401.834,282.836 
											"/>
					<polygon style="fill:#4B2E19;" points="473.084,268.586 473.584,263.086 401.694,282.805 401.834,282.836 					"/>
					<polygon style="fill:#C17850;" points="277.834,249.336 277.334,254.836 401.694,282.805 400.834,273.586 					"/>
					<polygon style="opacity:0.5;fill:#D28A52;" points="277.834,249.336 401.751,282.836 400.834,273.586 					"/>
				</g>
			</g>
		</g>
	</g>
	<path style="fill:#ACEBFF;" d="M162.134,310.913c0,0-32.194,2.056-24.479,7.778c7.715,5.724,74.984,7.417,83.448,2.092
		C229.566,315.457,188.655,308.62,162.134,310.913z"/>
	<path style="fill:#ACEBFF;" d="M92.073,301.874c0,0-5.363,0.343-4.078,1.297c1.285,0.953,12.492,1.235,13.901,0.349
		C103.307,302.632,96.491,301.493,92.073,301.874z"/>
	<path style="fill:#ACEBFF;" d="M117.372,321.264c0,0-4.954,0.315-3.767,1.196c1.187,0.881,11.538,1.142,12.84,0.322
		C127.748,321.963,121.452,320.911,117.372,321.264z"/>
	<path style="fill:#ACEBFF;" d="M27.667,293.799c0,0-8.609,0.549-6.546,2.08c2.063,1.53,20.053,1.983,22.316,0.56
		C45.7,295.014,34.759,293.186,27.667,293.799z"/>
	<path style="fill:#00AFE4;" d="M437.132,310.953c0,0-6.288,0.399-4.781,1.518s14.643,1.448,16.294,0.409
		C450.298,311.841,442.31,310.505,437.132,310.953z"/>
	<g>
		<path style="fill:#ACEBFF;" d="M269.538,304.354c0,0-6.788,0.432-5.162,1.639c1.627,1.207,15.808,1.563,17.59,0.441
			C283.751,305.311,275.127,303.87,269.538,304.354z"/>
		<path style="fill:#ACEBFF;" d="M286.742,308.565c0,0-4.174,0.266-3.174,1.008c1,0.742,9.719,0.961,10.815,0.271
			C295.481,309.155,290.178,308.268,286.742,308.565z"/>
	</g>
	<path style="fill:#FFFEFA;" d="M64.167,293.003c-11.166,2.667-11-5-13-9.5c-0.291-0.656-0.628-1.198-0.986-1.665
		c1.076,2.473,1.515,5.348,1.93,7.885c0.168,1.023,0.329,2.148,0.528,3.293c2.215,3.395,6.695,2.82,6.695,2.82
		c12.333,1,34.333-14.167,34.333-14.167S75.334,290.336,64.167,293.003z"/>
	<path style="fill:#FFFEFA;" d="M167.167,281.669c0,0,27.834-16.333,39-6.833C206.167,274.836,198.5,272.502,167.167,281.669z"/>
	<path style="fill:#FFFEFA;" d="M254.667,297.004c0,0,3.334-0.333,9.834-3.5s21.667-10.168,26.5-8.834l1,2.167
		c0,0-7.668-0.833-17.334,3.5C265.001,294.67,260.5,296.838,254.667,297.004z"/>
</g>
</svg>
