<svg id="canvas" height="auto" xmlns="http://www.w3.org/2000/svg" version="1.1" xmlns:xlink="http://www.w3.org/1999/xlink" viewBox="0 0 900 512" width="auto" style="width: auto; height: auto;"><defs><linearGradient gradientTransform="matrix(6.123233995736766e-17,1,-1,6.123233995736766e-17,0,0)"><stop stop-color="#213680" offset="0"/><stop stop-color="hsv(287, 74%, 50%)" offset="1"/></linearGradient><linearGradient gradientTransform="matrix(6.123233995736766e-17,1,-1,6.123233995736766e-17,0,0)"><stop stop-color="#19285e" offset="0"/><stop stop-color="hsv(287, 74%, 37%)" offset="1"/></linearGradient><linearGradient gradientTransform="matrix(6.123233995736766e-17,1,-1,6.123233995736766e-17,0,0)" id="SvgjsLinearGradient1320"><stop stop-color="#3a5dde" offset="0"/><stop stop-color="hsv(287, 74%, 87%)" offset="1"/></linearGradient><linearGradient gradientTransform="matrix(6.123233995736766e-17,1,-1,6.123233995736766e-17,0,0)"><stop stop-color="#29429e" offset="0"/><stop stop-color="hsv(287, 74%, 62%)" offset="1"/></linearGradient><linearGradient gradientTransform="matrix(6.123233995736766e-17,1,-1,6.123233995736766e-17,0,0)"><stop stop-color="#111b40" offset="0"/><stop stop-color="hsv(287, 74%, 25%)" offset="1"/></linearGradient><linearGradient gradientTransform="matrix(6.123233995736766e-17,1,-1,6.123233995736766e-17,0,0)" id="SvgjsLinearGradient1321"><stop stop-color="#426bff" offset="0"/><stop stop-color="hsv(287, 74%, 100%)" offset="1"/></linearGradient><linearGradient gradientTransform="matrix(6.123233995736766e-17,1,-1,6.123233995736766e-17,0,0)" id="SvgjsLinearGradient1319"><stop stop-color="#3250bf" offset="0"/><stop stop-color="hsv(287, 74%, 75%)" offset="1"/></linearGradient></defs><rect width="900" height="512" fill="#188fbfff"/><path d="M568.9279979953853 673.5971763127804C527.0265822764227 742.2399824661006 468.1415393602452 842.6032190490266 394.8866156057154 857.8443486736664C321.6316918511856 873.0854782983063 190.21167841422408 826.7676772565287 129.39845546820675 765.0439540606199C68.58523252218941 703.3202308647108 30.595689882793373 576.586474830564 30.007277929611348 487.5020094982125C29.418865976429323 398.41754416586093 64.53520181923881 286.9531840406147 125.86798374911461 230.5371620665104C187.20076567899042 174.12114009240608 308.03256151194347 148.26529039725878 398.00396950886625 149.00587765358654C487.975377505789 149.7464649099143 624.3145749955471 185.48374658778386 665.6964317306513 234.98068560447695C707.0782884657555 284.47762462117004 662.4231822087023 372.8847633023612 646.2951099194913 445.98751175374514C630.1670376302803 519.0902602051291 610.829413714348 604.9543701594603 568.9279979953853 673.5971763127804C527.0265822764227 742.2399824661006 468.1415393602452 842.6032190490266 394.8866156057154 857.8443486736664 " fill="none" stroke-width="4" stroke="url(#SvgjsLinearGradient1319)" opacity="0.5"/><path d="M1009.8178356654286 934.459459111086C953.7239301665779 938.0832082862297 850.7943914987418 858.0167565979048 791.0022651359193 840.5879434941768C731.2101387730968 823.1591303904488 690.7821898467348 847.4654363865876 651.0650774884932 829.8865804887183C611.3479651302514 812.307724590849 581.7693118836548 770.9297614054811 552.6995909864689 735.1148081069613C523.6298700892831 699.2998548084415 484.7665802924407 654.5286136166781 476.64675210537825 614.9968606975993C468.5269239183158 575.4651077785206 492.4774463591981 542.0925557413593 503.9806218640943 497.92429059248855C515.4837973689905 453.7560254436178 516.7483491684081 388.28655521377 545.6658051347554 349.98726980437493C574.5832611011025 311.6879843949799 631.1067935994162 290.3295061149129 677.4853576621776 268.1285781361182C723.8639217249391 245.92765015732357 772.2888709901215 216.14085908073892 823.9371895113243 216.78170193160702C875.5855080325268 217.42254478247511 937.2813861212014 248.8702138550396 987.3752687893935 271.9736352413268C1037.4691514575857 295.077056627614 1106.6448267668002 321.92396396479216 1124.5004855204766 355.40223024933033C1142.356144274153 388.8804965338685 1096.9324870775854 429.7650084909858 1094.5092213114517 472.8432329485557C1092.085955545318 515.9214574061256 1104.4514781207467 556.2045410789565 1109.9608909236754 613.8715769947496C1115.470303726604 671.5386129105427 1144.2562073387312 765.4141347572582 1127.5656981290233 818.8454484433142C1110.8751889193154 872.2767621293702 1065.9117411642792 930.8357099359422 1009.8178356654286 934.459459111086C953.7239301665779 938.0832082862297 850.7943914987418 858.0167565979048 791.0022651359193 840.5879434941768 " fill="url(#SvgjsLinearGradient1320)" stroke="none" opacity="0.5"/><path d="M967.9349841796202 428.7640576954323C923.1150922556576 451.17656969241983 863.3584272405375 448.36486881516026 810.5191577909138 448.8518523694782C757.6798883412903 449.3388359237961 697.0647843562268 460.24112026578547 650.8993674818786 431.68595902134024C604.7339506075303 403.130797776895 566.8017985957883 324.0623792382651 533.5266565448245 277.52088490280704C500.25151449386067 230.97939056734896 460.7704096401125 195.9506614856524 451.2485151760954 152.43699300859168C441.7266207120783 108.92332453153097 464.8091881764357 63.980963139758046 476.39528976072177 16.43887404044284C487.9813913450078 -31.103215058872337 493.330291305243 -95.24450147081109 520.7651246818116 -132.81554158729944C548.19995805838 -170.38658170378778 599.3354197952264 -186.51428420863317 641.0042900201329 -208.9873666584872C682.6731602450395 -231.4604491083412 728.9535151161076 -267.4745028133797 770.778346031251 -267.6540362864236C812.6031769463941 -267.83356975946754 851.0218436083887 -230.27005581439332 891.9532755109926 -210.0645674967506C932.8847074135963 -189.8590791791079 977.0343281135827 -183.83480289055555 1016.3669374468736 -146.42110638056735C1055.6995467801646 -109.00740987057915 1106.0609948081546 -38.118156493811455 1127.9489315107382 14.417611563178582C1149.8368682133218 66.95337962016862 1155.779628025049 118.80030715731044 1147.6945576623743 168.7935019613729C1139.6094872996996 218.78669676543535 1109.3984382484814 271.0483544318767 1079.4385093346891 314.3767803875533C1049.4785804208966 357.7052063432299 1012.7548761035827 406.3515456984448 967.9349841796202 428.7640576954323C923.1150922556576 451.17656969241983 863.3584272405375 448.36486881516026 810.5191577909138 448.8518523694782 " fill="none" stroke-width="4" stroke="url(#SvgjsLinearGradient1321)" opacity="0.5"/></svg>