<svg id="visual" viewBox="0 0 2000 2000" width="2000" height="2000" xmlns="http://www.w3.org/2000/svg" xmlns:xlink="http://www.w3.org/1999/xlink" version="1.1"><rect x="0" y="0" width="2000" height="2000" fill="#003550"></rect><g fill="#072839"><circle r="211" cx="538" cy="1606"></circle><circle r="132" cx="864" cy="929"></circle><circle r="135" cx="1194" cy="1937"></circle><circle r="134" cx="1779" cy="336"></circle><circle r="144" cx="1007" cy="1421"></circle><circle r="188" cx="371" cy="253"></circle><circle r="177" cx="1975" cy="1810"></circle><circle r="200" cx="185" cy="988"></circle><circle r="163" cx="1732" cy="832"></circle><circle r="137" cx="1770" cy="1289"></circle><circle r="198" cx="87" cy="1481"></circle><circle r="195" cx="1314" cy="56"></circle><circle r="194" cx="1337" cy="545"></circle><circle r="142" cx="762" cy="10"></circle><circle r="152" cx="773" cy="1965"></circle><circle r="207" cx="85" cy="1965"></circle><circle r="163" cx="510" cy="666"></circle><circle r="153" cx="53" cy="580"></circle><circle r="149" cx="1365" cy="1105"></circle><circle r="169" cx="1548" cy="1667"></circle></g></svg>